<svg width="40" height="40" viewBox="0 0 40 40" fill="none" xmlns="http://www.w3.org/2000/svg">
<g clip-path="url(#clip0_107_2)">
<path d="M32 0H8C3.58172 0 0 3.58172 0 8V32C0 36.4183 3.58172 40 8 40H32C36.4183 40 40 36.4183 40 32V8C40 3.58172 36.4183 0 32 0Z" fill="white"/>
<path d="M20 15.1622C17.9259 10.456 10.6666 10.9572 10.6666 16.9723C10.6666 22.9875 20 28 20 28C20 28 29.3333 22.9875 29.3333 16.9723C29.3333 10.9572 22.074 10.456 20 15.1622Z" fill="#F71212" stroke="#F71212" stroke-width="2" stroke-linecap="round" stroke-linejoin="round"/>
</g>
<defs>
<clipPath id="clip0_107_2">
<rect width="40" height="40" fill="white"/>
</clipPath>
</defs>
</svg>
